<svg viewBox="0 0 318 69" xmlns="http://www.w3.org/2000/svg"><path d="M140.4 26.6v29.1h-5.5V32.4h-.1l-10 23.3h-3.6l-10.2-23.3h-.1v23.3H106V26.6h7.9l9.5 22.5h.2l9.9-22.5h6.9zm5.6 3.3c0-1.8 1.3-3.1 3.1-3.1 1.8 0 3.1 1.3 3.1 3.1 0 1.8-1.3 3.2-3.1 3.2-1.8 0-3.1-1.4-3.1-3.2zm.4 6.1h5.3v19.7h-5.3V36zm21.6-.5c5.5 0 8.7 3.6 8.7 9.3v.9h-13c.2 2.7 2 4.5 4.7 4.5 2.2 0 3.6-.9 4.2-2.4h5.2c-.9 4-4.2 6.5-9.4 6.5-6.2 0-10-4-10-10.4 0-6.3 3.9-10.4 9.6-10.4zm-4.3 7.8h7.8c0-2.3-1.7-4-3.8-4-2.2 0-3.8 1.6-4 4zm23.2-7.3v5h.1c1.1-3.3 3.4-5.2 6.8-5 .5 0 1 .1 1.3.1v5.2c-.4-.1-1.2-.2-1.9-.2-3.3 0-5.4 2-5.4 5.6v9h-5.3V36h4.4zm16.3-.5c6 0 10.1 4.2 10.1 10.4s-4.1 10.4-10.1 10.4c-6 0-10.1-4.2-10.1-10.4s4.1-10.4 10.1-10.4zm0 16.5c2.9 0 4.7-2.4 4.7-6.1 0-3.7-1.8-6.1-4.7-6.1s-4.7 2.4-4.7 6.1c0 3.7 1.8 6.1 4.7 6.1zm12.9-1.6h5.2c.2 1.6 1.5 2.6 3.9 2.6 2.1 0 3.4-.8 3.4-2.1 0-1.1-.9-1.8-3-2.2l-2.8-.6c-4.5-.9-6.5-2.9-6.5-6 0-4.1 3.5-6.6 8.4-6.6 5.3 0 8.6 2.5 8.7 6.6h-5c-.2-1.6-1.5-2.6-3.7-2.6-1.9 0-3.1.8-3.1 2.1 0 1.1.9 1.7 2.9 2.1l2.9.6c4.6 1 6.5 2.9 6.5 6.1 0 4.3-3.6 6.8-8.8 6.8-5.5-.1-8.8-2.7-9-6.8zm26.7-14.4c6 0 10.1 4.2 10.1 10.4s-4.1 10.4-10.1 10.4c-6 0-10.1-4.2-10.1-10.4s4.1-10.4 10.1-10.4zm0 16.5c2.9 0 4.7-2.4 4.7-6.1 0-3.7-1.8-6.1-4.7-6.1s-4.7 2.4-4.7 6.1c0 3.7 1.8 6.1 4.7 6.1zm23.5-16.3v4.7h-4.3v10.5c0 1.3.6 1.9 2.1 1.9.8 0 1.5-.1 2.2-.2v4.2c-1 .3-2.2.4-3.6.4-4.1 0-6-1.7-6-5.7V40.2h-3.1v-4.7h3.1v-5.6h5.3v5.6h4.3z" fill="currentColor"/><path d="M0 0h32.7v32.7H0z" fill="currentColor" fillOpacity=".7"/><path d="M36.3 0H69v32.7H36.3z" fill="currentColor" fillOpacity=".8"/><path d="M0 36.3h32.7V69H0z" fill="currentColor" fillOpacity=".6"/><path d="M36.3 36.3H69V69H36.3z" fill="currentColor" fillOpacity=".9"/></svg>