<svg viewBox="0 0 111 30" xmlns="http://www.w3.org/2000/svg"><path fill="currentColor" d="M105.06 14.28L111 30c-1.75-.25-3.499-.563-5.28-.845l-3.345-8.686-3.437 7.969c-1.687-.282-3.344-.532-5.062-.782l6.031-13.095-5.625-12.595h5.407l3.062 7.874 3.188-7.874h5.343l-6.221 12.28zM90.06 0v27.562c-1.75.157-3.47.345-5.25.5V0h5.25zm-9.156 5.718h-4.155v22.562c-1.687.188-3.375.406-5.093.594V5.718h-4.157V.907h13.405v4.81zM64.155 11.25c1.344 0 4.532-.25 4.532 2.625v12.812c-1.72.22-3.5.438-5.22.657V16.25c0-.875-.344-1.218-1.094-1.218-.781 0-1.562.218-2.312.437v12.75l-5.219.594V6.437h5.219v4.313c1.406-.563 2.844-.969 4.094-1.063v1.563zm-17.343-4.532c2.937 0 4.28 1.75 4.28 4.937v10.626c0 3.156-1.28 4.718-4.156 4.718-.75 0-1.907-.156-2.843-.625v.875c0 1.937.406 2.687 1.656 2.687.844 0 1.688-.125 2.563-.25l.437 3.875c-1 .25-2.187.469-3.562.469-3.219 0-6.25-1.281-6.25-7.156V12.312c0-2.938 1.375-4.906 4.844-5.156 1.125-.063 2.031-.219 3.031-.438zM41.968 17c0-1.25-.156-2.282-.937-2.282-1 0-1.438.844-1.438 2.282v5.156c0 1.594.438 2.375 1.438 2.375.75 0 .937-.844.937-2.156V17zM19.093 25.406l2.157.313V4.376c-1.406.313-2.844.563-4.282.813v20.406c.688.063 1.407.125 2.125.188v-.376zm-6.375-20.25c-.906.156-1.843.281-2.75.437v21.907L14.5 28V4.656l-1.782.5zm-6.906 1.468c-1.218.188-2.468.406-3.687.625V30L7.75 29.47V6.625h-.938zM0 7.5v22.5L5.593 30V8l-5.593-.5z"/></svg>