<svg viewBox="0 0 446 127" xmlns="http://www.w3.org/2000/svg"><path fill="currentColor" d="M154.5 48.7c-3.8-2.1-5.7-3.8-5.7-6.2 0-3 2.7-4.9 6.9-4.9 4.9 0 9.2 2 9.2 2l3.4-10.6s-3.2-2.5-12.4-2.5c-12.9 0-21.8 7.4-21.8 17.8 0 5.9 4.2 10.4 9.8 13.6 4.5 2.6 6.1 4.4 6.1 7.1 0 2.8-2.3 5-6.5 5-6.3 0-12.3-3.3-12.3-3.3l-3.6 10.6s5.5 3.7 14.7 3.7c13.3 0 22.7-6.5 22.7-18.3-.1-6.4-4.8-10.9-10.5-14zm51.6-22.2c-6.5 0-11.6 3.1-15.5 7.8l-.2-.1 5.6-29.6h-14.8l-14.2 75.2h14.8l4.9-25.6c1.9-9.6 6.8-15.5 11.4-15.5 3.3 0 4.6 2.2 4.6 5.4 0 2-.2 4.4-.7 6.4l-5.5 29.4h14.8l5.7-30.4c.7-3 1.1-6.6 1.1-9.1 0-8.2-4.4-13.9-12-13.9zm41.2 0c-17.8 0-29.6 16-29.6 33.8 0 11.4 7.1 20.5 20.3 20.5 17.5 0 29.3-15.6 29.3-33.8.1-10.5-6.2-20.5-20-20.5zm-7.1 43.2c-5 0-7.1-4.3-7.1-9.6 0-8.4 4.4-22.6 12.3-22.6 5.2 0 6.9 4.5 6.9 8.8 0 9-4.4 23.4-12.1 23.4zm62.9-43.2c-10.1 0-15.8 8.9-15.8 8.9h-.2l.9-8.1h-13.1c-.7 5.5-1.9 13.9-3.1 20.1l-10.1 53.3h14.8l4-21.5h.3s3.1 2 8.8 2c17.4 0 28.8-17.8 28.8-35.8 0-9.9-4.4-18.9-15.3-18.9zm-13.4 43.6c-3.9 0-6.1-2.2-6.1-2.2l2.5-13.8c1.7-9.1 6.4-15.1 11.6-15.1 4.5 0 5.9 4.2 5.9 8.2-.1 9.6-5.9 22.9-13.9 22.9zm53.9-61.5c-4.7 0-8.5 3.8-8.5 8.7 0 4.4 2.8 7.5 7.1 7.5h.2c4.6 0 8.6-3.2 8.7-8.7 0-4.3-2.9-7.5-7.5-7.5zm-18 71.2h14.8l9.9-52.5h-14.9l-9.8 52.5zm54.5-52.5h-10.3l.5-2.5c.9-5.1 3.9-9.6 9-9.6 2.7 0 4.9.8 4.9.8l2.9-11.6s-2.7-1.3-8.4-1.3c-5.5 0-10.9 1.6-15.1 5.2-5.3 4.6-7.7 11.2-9 17.9l-.4 2.2h-6.9l-2.2 11.2h6.9l-7.7 41.3h14.8l7.7-41.3h10.2l2.1-12.3zm30.9-.8c0-.1-.1-.1 0 0-15.3-.1-28.7 15.4-28.7 33.2 0 11.8 6.9 20.3 18.5 20.3 5.9 0 10.8-1.5 14.8-3.8l1.4 3h12.9l10.2-52.5h-14.8l-3.7 19.5c-1.5-10.9-9.3-19.7-10.6-19.7zm3.7 42.4c-4.9 0-7.1-3.9-7.1-9.2 0-9.1 5.2-22 14-22 5.5 0 7.1 4.6 7.1 8.7 0 9.8-5.7 22.5-14 22.5z"/><path fill="currentColor" d="M94.6 9.7c-.1-.6-.6-1-1.1-1.1-.5-.1-11-.8-11-.8s-7.3-7.3-8.1-8.1c-.8-.8-2.4-.6-3-.4-.1 0-1.6.5-4.3 1.3C64.5-.4 61.4-1 58.8-1 45.9-1 39.4 15.3 37.4 23.1c-5.2 1.6-8.9 2.7-9.3 2.9-2.9.9-3 1-3.4 3.7-.3 2-7.9 60.8-7.9 60.8L77 99.6l30.3-6.5S94.7 10.3 94.6 9.7zM65.9 5.8l-5.8 1.8c0-.8 0-1.7-.1-2.7-.7-3.6-1.9-6.5-3.5-8.7 4.1.8 6.8 5.2 9.4 9.6zM53.4-2.5c1.5 2 2.7 5 3.3 9.1l-11 3.4c2.1-8 6.1-11.5 7.7-12.5zM47.1-3c.8 0 1.6.2 2.4.5-4.2 2-8.6 7.4-10.5 18l-8.8 2.7C32.9 8.9 38.9-3 47.1-3z"/><path fill="currentColor" fillOpacity=".6" d="M93.5 8.6c-.5-.1-11-.8-11-.8s-7.3-7.3-8.1-8.1c-.3-.3-.7-.4-1.1-.5l-6.1 98.4 30.3-6.5s-3-23.4-3-24c-.1-.5-.6-.9-1.1-1z"/></svg>