<svg viewBox="0 0 127 127" xmlns="http://www.w3.org/2000/svg"><path fill="currentColor" d="M26.6 80c0 7.4-6 13.4-13.4 13.4S0 87.4 0 80s6-13.4 13.4-13.4h13.4V80h-.2zm6.7 0c0-7.4 6-13.4 13.4-13.4s13.4 6 13.4 13.4v33.6c0 7.4-6 13.4-13.4 13.4s-13.4-6-13.4-13.4V80z"/><path fill="currentColor" d="M46.9 26.6c-7.4 0-13.4-6-13.4-13.4S39.5 0 46.9 0s13.4 6 13.4 13.4v13.4H46.9v-.2zm0 6.9c7.4 0 13.4 6 13.4 13.4s-6 13.4-13.4 13.4H13.2C5.8 60.3-.2 54.3-.2 46.9s6-13.4 13.4-13.4h33.7z"/><path fill="currentColor" d="M100.4 46.9c0-7.4 6-13.4 13.4-13.4s13.4 6 13.4 13.4-6 13.4-13.4 13.4h-13.4V46.9zm-6.7 0c0 7.4-6 13.4-13.4 13.4s-13.4-6-13.4-13.4V13.2c0-7.4 6-13.4 13.4-13.4s13.4 6 13.4 13.4v33.7z"/><path fill="currentColor" d="M80.1 100.4c7.4 0 13.4 6 13.4 13.4s-6 13.4-13.4 13.4-13.4-6-13.4-13.4v-13.4h13.4zm0-6.7c-7.4 0-13.4-6-13.4-13.4s6-13.4 13.4-13.4h33.7c7.4 0 13.4 6 13.4 13.4s-6 13.4-13.4 13.4H80.1z"/></svg>