<svg viewBox="0 0 60 25" xmlns="http://www.w3.org/2000/svg"><path fill="currentColor" d="M59.64 14.28h-8.06c.19 1.93 1.6 2.55 3.2 2.55 1.64 0 2.96-.37 4.05-.95v3.32a8.33 8.33 0 0 1-4.56 1.1c-4.01 0-6.83-2.5-6.83-7.48 0-4.19 2.39-7.52 6.3-7.52 3.92 0 5.96 3.28 5.96 7.5 0 .4-.02 1.04-.06 1.48zm-6.3-5.63c-1.03 0-1.84.72-2.03 2.29h3.96c-.14-1.54-.86-2.29-1.93-2.29zm-19.3-.54a4.9 4.9 0 0 1 3.83-1.82c2.77 0 4.86 2.55 4.86 7.27 0 4.91-2.19 7.74-4.9 7.74-1.36 0-2.58-.56-3.67-1.67l-.13 1.4h-3.98V.44h4v5.66zm3.43 9.13c0-2.09-.71-3.72-2.17-3.72-.89 0-1.55.45-2.05 1.24v4.63c.47.73 1.12 1.13 2 1.13 1.54 0 2.22-1.52 2.22-3.28zM28.24.44v19.41h-4V.44h4zm-6.47 0v19.41h-4V.44h4zM6.66 17.68l-.11 2.17H2.72V.44h3.99v5.66a4.9 4.9 0 0 1 3.68-1.81c2.77 0 4.86 2.55 4.86 7.27 0 4.91-2.15 7.74-4.9 7.74-1.36 0-2.58-.56-3.69-1.62zm-.26-6.63v4.63c.48.73 1.12 1.13 2 1.13 1.54 0 2.22-1.52 2.22-3.28 0-2.09-.72-3.72-2.17-3.72-.89 0-1.55.45-2.05 1.24z"/></svg>